<?xml version="1.0" encoding="iso-8859-1"?>
<!-- Generator: Adobe Illustrator 19.0.0, SVG Export Plug-In . SVG Version: 6.00 Build 0)  -->
<svg version="1.1" id="Layer_1" xmlns="http://www.w3.org/2000/svg" xmlns:xlink="http://www.w3.org/1999/xlink" x="0px" y="0px"
	 viewBox="0 0 504.123 504.123" style="enable-background:new 0 0 504.123 504.123;" xml:space="preserve">
<circle style="fill:#324A5E;" cx="252.062" cy="252.062" r="252.062"/>
<path style="fill:#FF7058;" d="M346.585,405.662H157.538c-8.665,0-15.754-6.302-16.935-14.572l-20.874-148.086h264.665
	L363.52,391.089C362.338,399.36,355.249,405.662,346.585,405.662z"/>
<path style="fill:#4CDBC4;" d="M374.942,186.683h-245.76c-16.148,0-29.145,12.997-29.145,29.145s12.997,29.145,29.145,29.145h245.76
	c16.148,0,29.145-12.997,29.145-29.145S391.089,186.683,374.942,186.683z"/>
<g>
	<path style="fill:#F1543F;" d="M175.655,275.298c-7.483,0-13.785,6.302-13.785,13.785v68.923c0,7.483,6.302,13.785,13.785,13.785
		s13.785-6.302,13.785-13.785v-68.923C189.44,281.6,183.532,275.298,175.655,275.298z"/>
	<path style="fill:#F1543F;" d="M226.462,275.298c-7.483,0-13.785,6.302-13.785,13.785v68.923c0,7.483,6.302,13.785,13.785,13.785
		c7.483,0,13.785-6.302,13.785-13.785v-68.923C240.64,281.6,234.338,275.298,226.462,275.298z"/>
	<path style="fill:#F1543F;" d="M277.662,275.298c-7.483,0-13.785,6.302-13.785,13.785v68.923c0,7.483,6.302,13.785,13.785,13.785
		c7.483,0,13.785-6.302,13.785-13.785v-68.923C291.446,281.6,285.145,275.298,277.662,275.298z"/>
	<path style="fill:#F1543F;" d="M328.468,275.298c-7.483,0-13.785,6.302-13.785,13.785v68.923c0,7.483,6.302,13.785,13.785,13.785
		c7.483,0,13.785-6.302,13.785-13.785v-68.923C342.252,281.6,335.951,275.298,328.468,275.298z"/>
</g>
<circle style="fill:#FFD05B;" cx="252.062" cy="134.695" r="44.111"/>
<g>
	<path style="fill:#FFA124;" d="M252.062,94.917c-22.055,0-39.778,17.723-39.778,39.778s17.723,39.778,39.778,39.778
		s39.778-17.723,39.778-39.778S274.117,94.917,252.062,94.917z M252.062,170.142c-19.298,0-35.446-15.754-35.446-35.446
		s15.754-35.446,35.446-35.446s35.446,15.754,35.446,35.446S271.36,170.142,252.062,170.142z"/>
	<path style="fill:#FFA124;" d="M265.846,111.458l-1.969,9.058c-1.969-1.969-4.726-2.757-8.271-2.757
		c-3.545,0-6.695,1.182-8.665,3.938c-1.182,1.575-2.363,3.151-2.757,5.514h18.511l-1.182,5.12h-18.117c0,0.394,0,1.182,0,1.969
		c0,0.788,0,1.575,0,2.363h16.935l-1.182,5.12h-14.966c0.394,2.363,1.575,4.332,2.757,5.514c2.363,2.757,5.12,3.938,8.665,3.938
		c4.332,0,7.877-1.182,10.24-3.938v10.24c-2.757,1.575-6.302,2.363-10.24,2.363c-6.695,0-11.815-2.363-16.148-6.695
		c-2.757-3.151-4.726-6.695-5.514-11.422h-5.12l1.182-5.12h3.151c0-0.394,0-1.182,0-1.575c0-1.182,0-1.969,0-2.757h-4.332
		l1.182-5.12h3.938c0.788-4.332,2.757-8.271,5.514-11.028c4.332-4.332,9.846-6.695,16.542-6.695
		C259.938,109.489,263.089,109.883,265.846,111.458z"/>
</g>
<g>
	<path style="fill:#FFFFFF;" d="M200.862,226.068L200.862,226.068c-7.483,7.483-20.086,7.483-27.569,0l-70.105-70.105
		c-7.483-7.483-7.483-20.086,0-27.569l0,0c7.483-7.483,20.086-7.483,27.569,0l70.105,70.105
		C208.345,205.982,208.345,218.585,200.862,226.068z"/>
	<path style="fill:#FFFFFF;" d="M303.262,226.068L303.262,226.068c7.483,7.483,20.086,7.483,27.569,0l70.105-70.105
		c7.483-7.483,7.483-20.086,0-27.569l0,0c-7.483-7.483-20.086-7.483-27.569,0l-70.105,70.105
		C295.778,205.982,295.778,218.585,303.262,226.068z"/>
</g>
<g>
</g>
<g>
</g>
<g>
</g>
<g>
</g>
<g>
</g>
<g>
</g>
<g>
</g>
<g>
</g>
<g>
</g>
<g>
</g>
<g>
</g>
<g>
</g>
<g>
</g>
<g>
</g>
<g>
</g>
</svg>
