<svg height="512pt" viewBox="0 0 512 512" width="512pt" xmlns="http://www.w3.org/2000/svg"><path d="m256 106 30-42.859375-30-63.140625c-70.304688 0-134.054688 29.597656-180.230469 75.769531l12.375 72.375 61.839844 1.839844c27.164063-27.160156 64.664063-43.984375 106.015625-43.984375zm0 0" fill="#ff6c6c"/><path d="m256 106c41.351562 0 78.851562 16.824219 106.015625 43.984375l60.414063-.414063 13.796874-73.796874c-46.171874-46.175782-109.921874-75.773438-180.226562-75.773438zm0 0" fill="#444"/><path d="m406 256 45 30 61-30c0-70.304688-29.597656-134.054688-75.769531-180.230469l-74.214844 74.214844c27.160156 27.164063 43.984375 64.664063 43.984375 106.015625zm0 0" fill="#ff4949"/><path d="m362.015625 362.015625s-13.492187 46.503906 9.007813 68.917969c10.789062 10.75 52.953124-7.144532 65.335937 5.152344 46.097656-46.164063 75.640625-109.851563 75.640625-180.085938h-106c0 41.351562-16.824219 78.851562-43.984375 106.015625zm0 0" fill="#444"/><path d="m256 406-30 56.25 30 49.75c70.304688 0 134.054688-29.597656 180.230469-75.769531.042969-.046875.085937-.101563.128906-.144531-38.207031-37.941407-74.34375-74.070313-74.34375-74.070313-27.164063 27.160156-64.664063 43.984375-106.015625 43.984375zm0 0" fill="#ff4949"/><path d="m256 406c-41.351562 0-78.851562-16.824219-106.015625-43.984375l-61.839844 1.839844-12.371093 72.371093c46.171874 46.175782 109.921874 75.773438 180.226562 75.773438zm0 0" fill="#5a5a5a"/><path d="m149.984375 362.015625c-27.160156-27.164063-43.984375-64.664063-43.984375-106.015625l-52.5-30-53.5 30c0 70.304688 29.597656 134.054688 75.769531 180.230469zm0 0" fill="#ff6c6c"/><path d="m149.984375 149.984375-74.214844-74.214844c-46.171875 46.175781-75.769531 109.925781-75.769531 180.230469h106c0-41.351562 16.824219-78.851562 43.984375-106.015625zm0 0" fill="#5a5a5a"/><path d="m256 91c-90.902344 0-165 74.097656-165 165s74.097656 165 165 165 165-74.097656 165-165-74.097656-165-165-165zm0 0" fill="#6e6e6e"/><path d="m421 256c0 90.902344-74.097656 165-165 165v-330c90.902344 0 165 74.097656 165 165zm0 0" fill="#5a5a5a"/><path d="m256 121c-74.398438 0-135 60.601562-135 135s60.601562 135 135 135 135-60.601562 135-135-60.601562-135-135-135zm0 0" fill="#ede9e8"/><path d="m391 256c0 74.398438-60.601562 135-135 135v-270c74.398438 0 135 60.601562 135 135zm0 0" fill="#dfd7d5"/><path d="m301 286c0 19.5-12.597656 36-30 42.300781v32.699219h-30v-32.699219c-17.402344-6.300781-30-22.800781-30-42.300781h30c0 8.402344 6.597656 15 15 15s15-6.597656 15-15-6.597656-15-15-15c-24.902344 0-45-20.097656-45-45 0-19.5 12.597656-36 30-42.300781v-32.699219h30v32.699219c17.402344 6.300781 30 22.800781 30 42.300781h-30c0-8.402344-6.597656-15-15-15s-15 6.597656-15 15 6.597656 15 15 15c24.902344 0 45 20.097656 45 45zm0 0" fill="#6e6e6e"/><g fill="#5a5a5a"><path d="m301 286c0 19.5-12.597656 36-30 42.300781v32.699219h-15v-60c8.402344 0 15-6.597656 15-15s-6.597656-15-15-15v-30c24.902344 0 45 20.097656 45 45zm0 0"/><path d="m256 211v-60h15v32.699219c17.402344 6.300781 30 22.800781 30 42.300781h-30c0-8.402344-6.597656-15-15-15zm0 0"/></g></svg>