<?xml version="1.0" encoding="iso-8859-1"?>
<!-- Generator: Adobe Illustrator 19.0.0, SVG Export Plug-In . SVG Version: 6.00 Build 0)  -->
<svg version="1.1" id="Layer_1" xmlns="http://www.w3.org/2000/svg" xmlns:xlink="http://www.w3.org/1999/xlink" x="0px" y="0px"
	 viewBox="0 0 473.658 473.658" style="enable-background:new 0 0 473.658 473.658;" xml:space="preserve">
<circle style="fill:#4ABC96;" cx="236.829" cy="236.829" r="236.829"/>
<path style="fill:#EF5E8F;" d="M289.168,71.658l-14.85-6.619l-41.603-18.268l-3.134-1.346c-0.337-0.112-0.673-0.239-1.013-0.34
	c-1.915-0.546-3.945-0.845-6.054-0.845c-11.342,0-20.545,8.53-20.545,19.061c0,1.881,0.307,3.691,0.856,5.404l28.178,184.202
	l9.977-1.526L214.911,81l-1.877-12.266c-2.053-13.945,11.649-13.586,18.53-11.469l11.439,4.914l27.213,12.083l0.037-0.082
	l14.842,6.619c2.244,1.002,4.974-0.236,6.099-2.756C292.321,75.521,291.412,72.653,289.168,71.658z"/>
<g>
	<rect x="225.236" y="264.053" style="fill:#CFE6E9;" width="17.303" height="161.139"/>
	<ellipse style="fill:#CFE6E9;" cx="234.955" cy="424.108" rx="60.559" ry="4.327"/>
	<path style="opacity:0.8;fill:#CFE6E9;enable-background:new    ;" d="M242.094,271.615h-16.447
		c-1.556,0-93.43-96.796-93.43-114.63c0-12.255,11.619-13.702,25.957-13.702h151.401c14.33,0,25.949,0,25.949,13.702
		C335.528,175.114,243.65,271.615,242.094,271.615z"/>
</g>
<path style="fill:#F1F8F9;" d="M233.871,263.687c-10.811,0-54.071-53.173-54.071-53.173l107.6-0.542
	C287.4,209.975,244.69,263.687,233.871,263.687z"/>
<path style="fill:#F4E028;" d="M324.235,115.12c20.299,10.665,28.268,35.522,18.178,55.971l6.728,3.534
	c12.03-24.15,2.614-53.596-21.387-66.206c-24.008-12.61-53.596-3.65-66.647,19.966l6.728,3.534
	C278.944,112.012,303.936,104.458,324.235,115.12z"/>
<path style="fill:#F9F29A;" d="M324.235,115.12c-20.299-10.662-45.29-3.108-56.401,16.798l21.271,11.454l5.411-0.086l6.529,0.176
	l8.852,10.553l32.516,17.075C352.502,150.642,344.533,125.781,324.235,115.12z"/>
<g>
	<path style="fill:#F4E028;" d="M307.466,148.118c-0.168,0-0.337-0.045-0.497-0.127c-0.535-0.273-0.737-0.931-0.46-1.458
		l10.561-20.104c0.284-0.527,0.935-0.737,1.462-0.456c0.535,0.277,0.737,0.935,0.46,1.462l-10.561,20.104
		C308.233,147.901,307.859,148.118,307.466,148.118z"/>
	<path style="fill:#F4E028;" d="M313.251,154.726c-0.46,0-0.89-0.295-1.028-0.763c-0.183-0.568,0.138-1.174,0.707-1.35l21.686-6.754
		c0.576-0.18,1.174,0.142,1.357,0.711c0.176,0.572-0.146,1.174-0.714,1.354l-21.686,6.754
		C313.461,154.711,313.352,154.726,313.251,154.726z"/>
	<path style="fill:#F4E028;" d="M296.778,143.358l-5.815-18.698c-0.183-0.568,0.138-1.174,0.707-1.35
		c0.576-0.183,1.174,0.142,1.357,0.707l6.039,19.409L296.778,143.358z"/>
</g>
<g>
</g>
<g>
</g>
<g>
</g>
<g>
</g>
<g>
</g>
<g>
</g>
<g>
</g>
<g>
</g>
<g>
</g>
<g>
</g>
<g>
</g>
<g>
</g>
<g>
</g>
<g>
</g>
<g>
</g>
</svg>
