<?xml version="1.0" encoding="iso-8859-1"?>
<!-- Generator: Adobe Illustrator 19.0.0, SVG Export Plug-In . SVG Version: 6.00 Build 0)  -->
<svg version="1.1" id="Layer_1" xmlns="http://www.w3.org/2000/svg" xmlns:xlink="http://www.w3.org/1999/xlink" x="0px" y="0px"
	 viewBox="0 0 473.654 473.654" style="enable-background:new 0 0 473.654 473.654;" xml:space="preserve">
<circle style="fill:#F2B800;" cx="236.827" cy="236.827" r="236.827"/>
<path style="fill:#6B7177;" d="M419.281,222.478H60.383c-10.015,0-18.129,8.115-18.129,18.122c0,10.015,8.115,18.129,18.129,18.129
	h358.898c10.007,0,18.122-8.115,18.122-18.129C437.403,230.593,429.288,222.478,419.281,222.478z"/>
<path style="fill:#646A6E;" d="M42.257,240.6c0,10.015,8.115,18.129,18.129,18.129h358.898c10.007,0,18.122-8.115,18.122-18.129
	H42.257z"/>
<path style="fill:#414548;" d="M406.899,179.918c-7.771,0-14.076,2.337-14.076,10.108v104.166c0,7.771,6.305,10.116,14.076,10.116
	s14.076-2.345,14.076-10.116V190.026C420.975,182.256,414.674,179.918,406.899,179.918z"/>
<path style="fill:#313335;" d="M406.899,179.918c-7.771,0-14.076,2.337-14.076,10.108v104.166c0,7.771,6.305,10.116,14.076,10.116
	V179.918z"/>
<path style="fill:#414548;" d="M74.391,179.918c7.778,0,14.083,2.337,14.083,10.108v104.166c0,7.771-6.305,10.116-14.083,10.116
	c-7.771,0-14.076-2.345-14.076-10.116V190.026C60.319,182.256,66.621,179.918,74.391,179.918z"/>
<path style="fill:#313335;" d="M74.391,179.918v124.393c-7.771,0-14.076-2.345-14.076-10.116v-104.17
	C60.319,182.256,66.621,179.918,74.391,179.918z"/>
<path style="fill:#393C3F;" d="M374.806,162.025c-10.015,0-18.129,3.01-18.129,13.021v134.127c0,10.015,8.115,13.029,18.129,13.029
	c10.007,0,18.122-3.018,18.122-13.029V175.046C392.928,165.035,384.813,162.025,374.806,162.025z"/>
<path style="fill:#303335;" d="M374.806,162.025c-10.015,0-18.129,3.01-18.129,13.021v134.127c0,10.015,8.115,13.029,18.129,13.029
	V162.025z"/>
<path style="fill:#393C3F;" d="M106.492,162.025c10.015,0,18.129,3.01,18.129,13.021v134.127c0,10.015-8.115,13.029-18.129,13.029
	s-18.129-3.018-18.129-13.029V175.046C88.366,165.035,96.481,162.025,106.492,162.025z"/>
<path style="fill:#303335;" d="M106.492,162.025v160.181c-10.015,0-18.129-3.018-18.129-13.029V175.046
	C88.366,165.035,96.481,162.025,106.492,162.025z"/>
<g>
</g>
<g>
</g>
<g>
</g>
<g>
</g>
<g>
</g>
<g>
</g>
<g>
</g>
<g>
</g>
<g>
</g>
<g>
</g>
<g>
</g>
<g>
</g>
<g>
</g>
<g>
</g>
<g>
</g>
</svg>
