<?xml version="1.0" encoding="iso-8859-1"?>
<!-- Generator: Adobe Illustrator 19.0.0, SVG Export Plug-In . SVG Version: 6.00 Build 0)  -->
<svg version="1.1" id="Capa_1" xmlns="http://www.w3.org/2000/svg" xmlns:xlink="http://www.w3.org/1999/xlink" x="0px" y="0px"
	 viewBox="0 0 512 512" style="enable-background:new 0 0 512 512;" xml:space="preserve">
<path style="fill:#53506D;" d="M510.866,257.134c0,83.887-40.529,158.319-103.08,204.756C365.384,493.379,312.872,512,256,512
	c-38.667,0-75.316-8.613-108.146-24.02c-15.458-7.261-30.074-16.02-43.65-26.1C41.663,415.442,1.134,341.021,1.134,257.134
	C1.134,116.375,115.241,2.268,256,2.268c133.435,0,242.924,102.55,253.951,233.135c0.479,5.669,0.77,11.391,0.874,17.154
	C510.856,254.076,510.866,255.605,510.866,257.134z"/>
<path style="fill:#F9CEBB;" d="M407.786,461.89C365.384,493.379,312.872,512,256,512s-109.395-18.631-151.796-50.12
	c0.375-75.066,34.35-139.968,83.742-171.551c20.473-13.097,43.577-20.473,68.044-20.473s47.582,7.376,68.054,20.473
	C373.436,321.922,407.411,386.824,407.786,461.89z"/>
<path style="fill:#F4B298;" d="M324.044,290.329c-19.318,13.232-42.765,20.119-68.054,20.119c-21.326,0-38.438-4.921-54.864-14.387
	c-32.415,33.507-54.198,95.788-54.198,167.099c0,8.582,0.312,16.852,0.926,24.821c-15.458-7.261-30.074-16.02-43.65-26.1
	c0.52-104.225,65.818-188.851,147.188-191.93c0.114-0.01,0.229-0.01,0.343-0.01c0.947-0.031,1.893-0.073,2.85-0.083
	c-0.312,0.01-0.624,0.031-0.947,0.042c0.791-0.01,1.56-0.042,2.351-0.042C280.457,269.857,303.572,277.232,324.044,290.329z"/>
<path style="fill:#FF80B0;" d="M376.983,326.874c-13.388-18.423-29.325-33.788-47.114-45.158c-0.042-0.031-0.094-0.062-0.135-0.094
	c-6.002-3.818-14.033-1.768-17.497,4.442c-10.954,19.619-31.905,33.049-56.247,33.049c-20.941,0-39.374-9.945-51.077-25.216
	c-1.904-2.476-3.631-5.087-5.16-7.823c-3.474-6.221-11.505-8.27-17.508-4.442c-0.042,0.031-0.083,0.052-0.125,0.083
	c-17.789,11.37-33.736,26.735-47.124,45.158c-7.105,9.789-10.964,21.565-10.964,33.663c0,35.983,14.262,68.866,37.471,92.958
	c0.364,0.374,0.728,0.749,1.092,1.123c23.853,24.207,56.861,39.27,93.427,39.26c36.43-0.01,69.407-14.782,93.281-38.656
	s38.646-56.872,38.646-93.312v-1.384C387.948,348.428,384.089,336.652,376.983,326.874z"/>
<circle style="fill:#F4B298;" cx="408.171" cy="146.917" r="37.081"/>
<circle style="fill:#D88F7C;" cx="401.679" cy="153.097" r="24.412"/>
<circle style="fill:#EAA48C;" cx="103.819" cy="146.917" r="37.081"/>
<circle style="fill:#D88F7C;" cx="110.3" cy="153.097" r="24.412"/>
<path style="fill:#F9CEBB;" d="M408.298,154.311c0,84.115-68.19,131.156-152.305,131.156s-152.305-47.04-152.305-131.156
	S171.878,2.006,255.993,2.006S408.298,70.195,408.298,154.311z"/>
<path style="fill:#F4B298;" d="M255.998,285.463c-84.118,0-152.31-47.043-152.31-131.152c0-83.649,67.428-151.547,150.894-152.301
	c-59.787,1.058-108.016,68.836-108.016,152.301C146.566,238.42,195.558,285.463,255.998,285.463z"/>
<g>
	<path style="fill:#39B7DD;" d="M340.292,154.692v-27.345c0-7.131-5.781-12.913-12.913-12.913l0,0
		c-7.131,0-12.913,5.781-12.913,12.913v27.345c0,7.131,5.781,12.913,12.913,12.913l0,0
		C334.511,167.605,340.292,161.824,340.292,154.692z"/>
	<path style="fill:#39B7DD;" d="M197.52,154.692v-27.345c0-7.131-5.781-12.913-12.913-12.913l0,0
		c-7.131,0-12.913,5.781-12.913,12.913v27.345c0,7.131,5.781,12.913,12.913,12.913l0,0
		C191.738,167.605,197.52,161.824,197.52,154.692z"/>
</g>
<g>
	<path style="fill:#F4B298;" d="M270.246,142.94H241.74c-5.079,0-9.195,4.116-9.195,9.195l0,0c0,5.079,4.116,9.195,9.195,9.195
		h28.505c5.079,0,9.195-4.116,9.195-9.195l0,0C279.441,147.058,275.324,142.94,270.246,142.94z"/>
	<path style="fill:#F4B298;" d="M255.993,123.775L255.993,123.775c-5.84,0-10.574,4.734-10.574,10.574v17.787h21.149v-17.787
		C266.568,128.509,261.834,123.775,255.993,123.775z"/>
</g>
<path style="fill:#BA6041;" d="M255.993,2.006c-38.157,17.258-38.778,72.228-4.595,88.522
	c49.194,23.448,67.126-40.459,67.126-40.459s-32.183,21.149-41.379,0s27.978-40.38,49.391-30.764l-0.058-0.05
	C306.993,2.759,280.893-3.628,255.993,2.006L255.993,2.006z"/>
<path style="fill:#A04E38;" d="M269.789,90.528c3.945,1.876,7.688,3.2,11.237,4.028c-8.267,2.17-18.087,1.471-29.627-4.028
	c-34.187-16.294-33.562-71.263,4.598-88.523c9.011-2.041,18.179-2.501,27.135-1.48c-2.924,0.331-5.839,0.828-8.745,1.48
	C236.227,19.265,235.601,74.234,269.789,90.528z"/>
<g>
	<ellipse style="fill:#FCB8D2;" cx="352.017" cy="187.02" rx="21.074" ry="12.818"/>
	<path style="fill:#FCB8D2;" d="M181.036,187.023c0,7.08-9.434,12.818-21.066,12.818c-2.905,0-5.674-0.359-8.184-1.011
		c-7.577-1.931-12.892-6.492-12.892-11.807c0-4.313,3.504-8.138,8.883-10.455c3.439-1.49,7.65-2.363,12.193-2.363
		C171.602,174.205,181.036,179.942,181.036,187.023z"/>
</g>
<path style="fill:#EF9BBE;" d="M151.787,198.829c-7.577-1.931-12.892-6.492-12.892-11.807c0-4.313,3.504-8.138,8.883-10.455
	C148.66,184.384,150.003,191.804,151.787,198.829z"/>
<path style="fill:#F4B298;" d="M269.067,261.017c-8.548,2.413-17.6,2.413-26.148,0c-2.266-0.64-4.642,0.569-5.474,2.771
	c-0.01,0.029-0.022,0.057-0.032,0.086c-0.937,2.48,0.425,5.261,2.976,5.983c10.201,2.887,21.007,2.887,31.209,0
	c2.551-0.722,3.914-3.503,2.976-5.983c-0.01-0.029-0.022-0.057-0.032-0.086C273.71,261.585,271.334,260.378,269.067,261.017z"/>
<path style="fill:#F567A7;" d="M204.912,293.897c-21.037,12.064-66.116,70.319-43.41,159.598
	c-23.208-24.093-37.471-56.976-37.471-92.958c0-12.098,3.859-23.874,10.964-33.663c13.388-18.423,29.336-33.788,47.124-45.158
	c0.042-0.031,0.083-0.052,0.125-0.083c6.002-3.828,14.033-1.779,17.508,4.442C201.282,288.81,203.009,291.421,204.912,293.897z"/>
<path style="fill:#FC90B4;" d="M369.198,344.259L369.198,344.259c-3.115,3.115-8.164,3.115-11.279,0l-26.481-26.481
	c-3.115-3.115-3.115-8.164,0-11.279l0,0c3.115-3.115,8.164-3.115,11.279,0l26.481,26.481
	C372.313,336.095,372.313,341.144,369.198,344.259z"/>
<path style="fill:#F567A7;" d="M291.272,370.888c-16.835-10.719-38.008-5.114-44.23-3.095c-3.343-1.5-6.872-2.67-10.55-3.46
	c-1.721-0.369-3.491,0.334-4.489,1.781c-0.998,1.447-1.027,3.353-0.073,4.829c8.13,12.57,9.38,28.31,3.537,41.903
	c-2.769-0.666-5.727-0.73-8.69-0.073c-10.422,2.314-17.018,12.675-14.704,23.096c2.314,10.421,12.675,17.018,23.096,14.704
	c10.421-2.314,17.018-12.675,14.704-23.096c-0.976-4.395-3.386-8.106-6.625-10.758c5.712-12.96,6.005-27.594,0.987-40.657
	c13.361,6.287,23.008,18.969,25.241,33.772c-8.768,3.392-14.001,12.795-11.903,22.248c2.314,10.421,12.675,17.018,23.096,14.704
	c10.422-2.314,17.018-12.675,14.704-23.096c-1.88-8.468-9.072-14.411-17.294-15.1c-0.991-6.61-3.218-12.866-6.452-18.502
	c17.378-5.11,20.857-12.525,21.41-14.089C293.709,374.093,292.977,371.974,291.272,370.888z M233.285,442.088
	c-5.743,1.275-11.451-2.36-12.727-8.103c-1.274-5.742,2.359-11.451,8.103-12.727s11.451,2.36,12.727,8.103
	S239.027,440.813,233.285,442.088z M286.888,425.576c1.274,5.742-2.359,11.451-8.103,12.727c-5.743,1.275-11.451-2.36-12.727-8.103
	c-1.274-5.742,2.359-11.451,8.103-12.727S285.613,419.832,286.888,425.576z M266.361,382.515c-2.572-3.1-5.484-5.915-8.693-8.376
	c6.698-1.179,15.992-1.709,24.358,1.719C279.444,377.813,274.719,380.393,266.361,382.515z"/>
<ellipse style="fill:#FFC25F;" cx="371.553" cy="229.161" rx="44.448" ry="20.275"/>
<path style="fill:#EDAC4F;" d="M371.549,249.438c-24.551,0-44.448-9.076-44.448-20.271c0-11.206,19.896-20.282,44.448-20.282
	c-13.697,0-24.809,9.076-24.809,20.282C346.741,240.361,357.852,249.438,371.549,249.438z"/>
<g>
	<path style="fill:#39B7DD;" d="M325.082,229.163c-4.603,0-8.161,4.107-7.437,8.654c4.147,26.034,26.702,45.931,53.903,45.931
		c27.202,0,49.756-19.897,53.903-45.931c0.724-4.546-2.833-8.654-7.437-8.654H325.082z"/>
	<path style="fill:#39B7DD;" d="M510.825,252.557H408.587v-17.154h101.364C510.429,241.072,510.721,246.794,510.825,252.557z"/>
</g>
<path style="fill:#219DCF;" d="M370.75,283.733c-26.833-0.374-48.986-20.142-53.104-45.91c-0.725-4.55,2.831-8.656,7.439-8.656
	h17.603c-2.853,0-5.064,4.106-4.608,8.656C340.619,263.439,354.222,283.124,370.75,283.733z"/>
<path style="fill:#53506D;" d="M313.808,203.362c0,11.516-5.721,22.002-15.105,29.887c-10.569,8.884-25.788,14.46-42.713,14.46
	c-16.915,0-32.134-5.576-42.703-14.46c-9.383-7.885-15.105-18.371-15.105-29.887c0-24.488,25.882-29.866,57.808-29.866
	c4.328,0,8.53,0.094,12.587,0.333c6.179,0.354,11.994,1.009,17.248,2.101C302.594,179.405,313.808,187.249,313.808,203.362z"/>
<path style="fill:#FF80B0;" d="M298.703,233.249c-10.569,8.884-25.788,14.46-42.713,14.46c-16.915,0-32.134-5.576-42.703-14.46
	c10.569-8.884,25.788-14.46,42.713-14.46C272.915,218.79,288.134,224.366,298.703,233.249z"/>
<path style="fill:#FFFFFF;" d="M285.825,175.931v8.665c0,4.764-3.859,8.624-8.624,8.624c-4.764,0-8.624-3.859-8.624-8.624v-10.767
	C274.756,174.183,280.571,174.838,285.825,175.931z"/>
<g>
	<circle style="fill:#FFC25F;" cx="315.639" cy="370.461" r="14.564"/>
	<circle style="fill:#FFC25F;" cx="320.497" cy="344.798" r="6.242"/>
</g>
<g>
</g>
<g>
</g>
<g>
</g>
<g>
</g>
<g>
</g>
<g>
</g>
<g>
</g>
<g>
</g>
<g>
</g>
<g>
</g>
<g>
</g>
<g>
</g>
<g>
</g>
<g>
</g>
<g>
</g>
</svg>
