<?xml version="1.0" encoding="iso-8859-1"?>
<!-- Generator: Adobe Illustrator 19.0.0, SVG Export Plug-In . SVG Version: 6.00 Build 0)  -->
<svg version="1.1" id="Layer_1" xmlns="http://www.w3.org/2000/svg" xmlns:xlink="http://www.w3.org/1999/xlink" x="0px" y="0px"
	 viewBox="0 0 512 512" style="enable-background:new 0 0 512 512;" xml:space="preserve">
<circle style="fill:#386895;" cx="256" cy="256" r="256"/>
<g>
	<polygon style="fill:#263A7A;" points="90.505,206.093 124.868,240.457 131.305,178.919 	"/>
	<path style="fill:#263A7A;" d="M511.886,263.385l-90.391-90.391L113.778,398.222L225.77,510.214
		C235.685,511.381,245.77,512,256,512C394.914,512,507.976,401.355,511.886,263.385z"/>
</g>
<polygon style="fill:#FFEDB5;" points="398.222,398.222 113.778,398.222 113.778,170.667 256,113.778 398.222,170.667 "/>
<polygon style="fill:#FEE187;" points="398.222,170.667 256,113.778 255.426,114.007 255.426,398.222 398.222,398.222 "/>
<polygon style="fill:#FFC61B;" points="421.495,172.994 256,106.796 90.505,172.994 90.505,206.093 256,139.895 421.495,206.093 "/>
<polygon style="fill:#D48B07;" points="256,106.796 255.426,107.025 255.426,140.124 256,139.895 421.495,206.093 421.495,172.994 
	"/>
<path style="fill:#E03A00;" d="M204.283,355.34c-3.088,0-6.177-1.179-8.533-3.534c-4.711-4.713-4.711-12.354,0-17.067
	l103.434-103.434c4.713-4.71,12.354-4.71,17.067,0c4.711,4.713,4.711,12.354,0,17.067L212.816,351.806
	C210.46,354.161,207.37,355.34,204.283,355.34z"/>
<path style="fill:#940030;" d="M316.25,231.305c-4.713-4.71-12.354-4.71-17.067,0l-43.758,43.758v34.135l60.825-60.825
	C320.964,243.659,320.964,236.018,316.25,231.305z"/>
<path style="fill:#E03A00;" d="M221.522,222.815c-14.496,0-26.29,11.793-26.29,26.29c0,14.496,11.793,26.29,26.29,26.29
	s26.29-11.793,26.29-26.29C247.811,234.608,236.018,222.815,221.522,222.815z"/>
<path style="fill:#940030;" d="M298.667,300.822c-14.496,0-26.29,11.793-26.29,26.29c0,14.496,11.793,26.29,26.29,26.29
	s26.29-11.793,26.29-26.29C324.956,312.615,313.163,300.822,298.667,300.822z"/>
<g>
</g>
<g>
</g>
<g>
</g>
<g>
</g>
<g>
</g>
<g>
</g>
<g>
</g>
<g>
</g>
<g>
</g>
<g>
</g>
<g>
</g>
<g>
</g>
<g>
</g>
<g>
</g>
<g>
</g>
</svg>
