<?xml version="1.0" encoding="iso-8859-1"?>
<!-- Generator: Adobe Illustrator 19.0.0, SVG Export Plug-In . SVG Version: 6.00 Build 0)  -->
<svg version="1.1" id="Layer_1" xmlns="http://www.w3.org/2000/svg" xmlns:xlink="http://www.w3.org/1999/xlink" x="0px" y="0px"
	 viewBox="0 0 512 512" style="enable-background:new 0 0 512 512;" xml:space="preserve">
<circle style="fill:#C2001B;" cx="256" cy="256" r="256"/>
<path style="fill:#940030;" d="M301.497,507.966c112.497-20.18,199.478-113.855,209.515-229.557L364.751,132.377l-217.598,75.885
	l118.717,118l-36.157,109.92L301.497,507.966z"/>
<path style="fill:#FFEDB5;" d="M263.184,311.165h-15.515V269.36c0-13.783,11.214-24.997,24.997-24.997h107.744
	c5.227,0,9.481-4.255,9.481-9.481v-48.7c0-5.227-4.255-9.481-9.481-9.481h-39.65v-15.515h39.65
	c13.783,0,24.997,11.214,24.997,24.997v48.7c0,13.783-11.214,24.997-24.997,24.997H272.665c-5.227,0-9.481,4.255-9.481,9.481
	V311.165z"/>
<path style="fill:#FFC61B;" d="M352.682,212.471H158.168c-9.125,0-16.52-7.397-16.52-16.522v-52.29
	c0-9.125,7.397-16.522,16.52-16.522h194.513c9.125,0,16.52,7.397,16.52,16.522v52.291
	C369.204,205.074,361.806,212.471,352.682,212.471z"/>
<path style="fill:#D48B07;" d="M352.682,127.138H254.85v85.333h97.832c9.125,0,16.52-7.397,16.52-16.52v-52.293
	C369.204,134.535,361.806,127.138,352.682,127.138z"/>
<path style="fill:#273B7A;" d="M237.037,440.027h36.778c5.554,0,10.056-4.503,10.056-10.056V307.86
	c0-5.554-4.503-10.056-10.056-10.056h-36.778c-5.554,0-10.056,4.503-10.056,10.056v122.111
	C226.982,435.524,231.483,440.027,237.037,440.027z"/>
<path style="fill:#121149;" d="M273.813,297.805H254.85v142.222h18.963c5.554,0,10.056-4.503,10.056-10.056V307.86
	C283.87,302.308,279.368,297.805,273.813,297.805z"/>
<g>
</g>
<g>
</g>
<g>
</g>
<g>
</g>
<g>
</g>
<g>
</g>
<g>
</g>
<g>
</g>
<g>
</g>
<g>
</g>
<g>
</g>
<g>
</g>
<g>
</g>
<g>
</g>
<g>
</g>
</svg>
