<?xml version="1.0" encoding="iso-8859-1"?>
<!-- Generator: Adobe Illustrator 19.0.0, SVG Export Plug-In . SVG Version: 6.00 Build 0)  -->
<svg version="1.1" id="Layer_1" xmlns="http://www.w3.org/2000/svg" xmlns:xlink="http://www.w3.org/1999/xlink" x="0px" y="0px"
	 viewBox="0 0 473.658 473.658" style="enable-background:new 0 0 473.658 473.658;" xml:space="preserve">
<g>
	<circle style="fill:#D1E8F8;" cx="236.829" cy="236.829" r="236.829"/>
	<path style="fill:#D1E8F8;" d="M422.466,301.087c0,44.598-72.096,80.745-190.091,80.745c-117.992,0-179.998-29.419-179.998-74.018
		c0-44.591,60.324-50.47,178.315-50.47C348.688,257.341,422.466,256.488,422.466,301.087z"/>
</g>
<path style="fill:#B5D8E5;" d="M88.367,331.381c25.541,22.984,81.718,30.122,143.391,30.122c52.553,0,71.699-31.611,101.227-49.475
	c28.301-17.12,91.029,9.588,69.841-51.244c-36.749-9.51-96.676-9.196-173.293-9.196c-70.144,0-122.046,1.862-155.246,11.11
	C74.168,292.59,71.247,315.97,88.367,331.381z"/>
<path style="fill:#F3ED73;" d="M356.56,261.286c17.741,46.898-28.686,26.746-49.43,39.288
	c-21.271,12.868-35.059,35.635-72.904,35.635c-44.415,0-84.878-5.134-103.265-21.693c-12.565-11.305-10.138-28.574-10.138-50.698
	c0-10.138,74.773-57.029,119.132-57.029S350.726,245.883,356.56,261.286z"/>
<path style="fill:#F6F19B;" d="M356.56,254.106c17.741,46.891-28.686,26.746-49.43,39.288
	c-21.271,12.868-35.059,35.635-72.904,35.635c-44.415,0-84.878-5.134-103.265-21.693c-12.565-11.305-10.138-28.574-10.138-50.698
	c0-10.138,74.773-57.029,119.132-57.029S350.726,238.695,356.56,254.106z"/>
<path style="opacity:0.15;fill:#5C5C5C;enable-background:new    ;" d="M291.906,252.632c0-2.117-0.325-4.185-0.834-6.215
	c13.429-1.791,28.847-1.365,45.948,3.302c0,0-27.935-42.983-63.461-24.666c-4.888-2.943-10.542-5.295-16.757-6.896
	c0.015-0.553,0.056-1.096,0.056-1.642c0,0-8.702-5.71-17.842-6.544c-0.015,0-0.03-0.015-0.049-0.015
	c-0.086-0.007-0.172-0.007-0.258-0.022c-0.12,0-0.236-0.007-0.359-0.022c-0.37-0.022-0.733-0.037-1.103-0.037
	c-0.161-0.007-0.318-0.007-0.475,0c-0.337,0-0.666,0.007-0.998,0.022c-0.172,0.015-0.348,0.022-0.52,0.037
	c-0.318,0.03-0.636,0.06-0.95,0.101c-0.176,0.022-0.355,0.045-0.531,0.075c-0.318,0.052-0.632,0.108-0.946,0.183
	c-0.168,0.037-0.34,0.067-0.505,0.108c-0.344,0.079-0.681,0.183-1.013,0.292c-0.131,0.052-0.266,0.079-0.4,0.123
	c-0.931,0.337-1.832,0.752-2.711,1.286c-0.131,0.075-0.266,0.176-0.4,0.262c-0.295,0.191-0.587,0.389-0.871,0.606
	c-0.157,0.116-0.31,0.247-0.464,0.381c-0.254,0.213-0.509,0.423-0.755,0.658c-0.161,0.161-0.314,0.322-0.475,0.475
	c-0.236,0.239-0.46,0.49-0.684,0.752c-0.153,0.176-0.307,0.366-0.456,0.561c-0.221,0.269-0.426,0.561-0.636,0.86
	c-0.082,0.131-0.176,0.262-0.262,0.389c-7.18,1.328-13.773,3.609-19.442,6.66c-11.873-8.13-28.163-7.786-50.148,13.044
	c0,0,14.192,1.41,30.994,7.371c-0.064,0.176-0.138,0.344-0.194,0.512c-59.927-16.828-75.742,48.813-75.742,48.813
	c21.432-24.162,51.666-29.749,77.283-29.057c2.431,4.914,6.35,9.349,11.387,13.096c-95.958,27.901-33.604,76.288-33.604,76.288
	c0.879-34.292,23.937-56.636,44.845-69.904c8.384,3.586,18.283,5.688,28.918,5.688c19.831,0,37.131-7.217,46.644-17.976
	c12.023,2.951,24.962,8.508,37.912,18.223C322.047,289.808,311.722,264.038,291.906,252.632z"/>
<path style="fill:#905C25;" d="M230.352,150.661c0,0-7.558,90.626-13.848,99.443l22.662,12.584l16.361-10.063
	c0,0,8.814-61.688-15.101-104.481L230.352,150.661z"/>
<path style="fill:#A46828;" d="M230.352,150.661c0,0-7.558,90.626-13.848,99.443l22.662,12.584c0,0,10.49-59.579,1.26-114.548
	L230.352,150.661z"/>
<path style="fill:#68B147;" d="M240.423,131.772c0,0,41.955-40.276,106.575-22.658C346.998,109.118,294.131,27.714,240.423,131.772z
	"/>
<path style="fill:#86C06D;" d="M240.423,131.772c0,0,41.955-40.276,106.575-22.658C346.998,109.118,291.614,54.572,240.423,131.772z
	"/>
<path style="fill:#68B147;" d="M237.906,135.134c0,0,26.016-27.695,26.016-60.424c0,0-29.371-19.304-37.766,6.713
	C226.156,81.419,226.156,108.276,237.906,135.134z"/>
<path style="fill:#86C06D;" d="M237.906,135.134c0,0,16.967-66.37,7.475-67.219c-7.603-0.673-15.489,1.93-19.225,13.504
	C226.156,81.419,226.156,108.276,237.906,135.134z"/>
<path style="fill:#68B147;" d="M156.921,95.685c0,0,60.421,5.879,81.404,45.32C238.325,141.005,220.7,35.268,156.921,95.685z"/>
<path style="fill:#86C06D;" d="M156.921,95.685c0,0,60.421,5.879,81.404,45.32C238.325,141.005,213.146,61.285,156.921,95.685z"/>
<path style="fill:#F1E042;" d="M253.848,138.485c4.028,5.785,0.804,9.472-3.422,12.408c-4.222,2.951-7.842,4.031-11.873-1.746
	c-4.031-5.785-6.937-16.237-2.715-19.18C240.064,127.027,249.82,132.707,253.848,138.485z"/>
<path style="fill:#FCEE35;" d="M233.441,148.989c-4.506,5.669-9.428,4.959-13.571,1.664s-5.942-7.924-1.436-13.593
	c4.506-5.677,15.388-8.822,17.756-6.944C237.506,131.167,237.951,143.313,233.441,148.989z"/>
<path style="fill:#FCEF57;" d="M248.605,148.556c0,9.035-5.355,12.176-11.959,12.176s-11.956-3.141-11.956-12.176
	s8.182-20.56,11.956-20.56C238.744,127.995,248.605,139.521,248.605,148.556z"/>
<path style="fill:#68B147;" d="M230.767,135.549c0,0,50.354-22.658,100.707,15.112C331.475,150.661,296.225,62.541,230.767,135.549z
	"/>
<path style="fill:#86C06D;" d="M230.767,135.549c0,0,50.354-22.658,100.707,15.112C331.475,150.661,290.354,83.517,230.767,135.549z
	"/>
<path style="fill:#68B147;" d="M299.894,199.956c0,0-44.176-69.336-73.012-65.656C226.878,134.3,303.573,96.261,299.894,199.956z"/>
<path style="fill:#86C06D;" d="M299.894,199.956c0,0-44.176-69.336-73.012-65.656C226.878,134.3,275.964,110.988,299.894,199.956z"
	/>
<path style="fill:#68B147;" d="M242.102,133.451c0,0-85.603-31.05-131.754,20.975C110.344,154.431,135.527,49.539,242.102,133.451z"
	/>
<path style="fill:#86C06D;" d="M242.102,133.451c0,0-85.603-31.05-131.754,20.975C110.344,154.431,138.036,77.227,242.102,133.451z"
	/>
<path style="fill:#68B147;" d="M248.814,127.995c0,0-79.725,23.503-81.404,88.961C167.411,216.957,85.173,153.174,248.814,127.995z"
	/>
<path style="fill:#86C06D;" d="M248.814,127.995c0,0-79.725,23.503-81.404,88.961C167.411,216.957,109.51,156.532,248.814,127.995z"
	/>
<g>
</g>
<g>
</g>
<g>
</g>
<g>
</g>
<g>
</g>
<g>
</g>
<g>
</g>
<g>
</g>
<g>
</g>
<g>
</g>
<g>
</g>
<g>
</g>
<g>
</g>
<g>
</g>
<g>
</g>
</svg>
