<?xml version="1.0" encoding="iso-8859-1"?>
<!-- Generator: Adobe Illustrator 19.0.0, SVG Export Plug-In . SVG Version: 6.00 Build 0)  -->
<svg version="1.1" id="Layer_1" xmlns="http://www.w3.org/2000/svg" xmlns:xlink="http://www.w3.org/1999/xlink" x="0px" y="0px"
	 viewBox="0 0 297 297" style="enable-background:new 0 0 297 297;" xml:space="preserve">
<g>
	<g>
		<g>
			<g>
				<circle style="fill:#C0C0B8;" cx="148.5" cy="148.5" r="148.5"/>
			</g>
		</g>
	</g>
	<path style="fill:#A5A497;" d="M196.258,55.803l-86.985,200.641l40.556,40.539c78.779-0.691,142.915-62.715,146.967-140.648
		L196.258,55.803z"/>
	<path style="fill:#D75E29;" d="M114.209,258.5h68.583c3.843,0,6.958-3.115,6.958-6.958V77h-82.5v174.542
		C107.25,255.385,110.365,258.5,114.209,258.5z"/>
	<path style="fill:#CC503B;" d="M147.167,77v181.5h35.625c3.843,0,6.958-3.115,6.958-6.958V77H147.167z"/>
	<rect x="115.5" y="126.5" style="fill:#FFFFFF;" width="66" height="66"/>
	<rect x="147.167" y="126.5" style="fill:#EDECEB;" width="34.333" height="66"/>
	<path style="fill:#FFFFFF;" d="M192.834,83.5h-88.667c-2.853,0-5.167-2.313-5.167-5.167V59.667c0-2.853,2.313-5.167,5.167-5.167
		h88.667c2.853,0,5.167,2.313,5.167,5.167v18.667C198,81.187,195.687,83.5,192.834,83.5z"/>
	<path style="fill:#EDECEB;" d="M192.833,54.5h-45.667v29h45.667c2.853,0,5.167-2.313,5.167-5.167V59.667
		C198,56.813,195.687,54.5,192.833,54.5z"/>
</g>
<g>
</g>
<g>
</g>
<g>
</g>
<g>
</g>
<g>
</g>
<g>
</g>
<g>
</g>
<g>
</g>
<g>
</g>
<g>
</g>
<g>
</g>
<g>
</g>
<g>
</g>
<g>
</g>
<g>
</g>
</svg>
