<?xml version="1.0" encoding="iso-8859-1"?>
<!-- Generator: Adobe Illustrator 19.0.0, SVG Export Plug-In . SVG Version: 6.00 Build 0)  -->
<svg version="1.1" id="Capa_1" xmlns="http://www.w3.org/2000/svg" xmlns:xlink="http://www.w3.org/1999/xlink" x="0px" y="0px"
	 viewBox="0 0 512 512" style="enable-background:new 0 0 512 512;" xml:space="preserve">
<circle style="fill:#C8C6CC;" cx="256" cy="256" r="256"/>
<path style="fill:#8B8992;" d="M256,512c141.385,0,256-114.615,256-256c0-61.042-21.377-117.083-57.037-161.075
	c-0.751-0.927-1.505-1.851-2.269-2.767c-0.81-0.971-1.625-1.937-2.449-2.896L364.06,131.89c-12.96,6.44-15.41,7.83-39.61,0.93
	c-19.29-5.49-39.37,3.83-56.65,12.41l-93.92,46.57c-13.97,6.94-20.29,22.62-14.13,35.05c0.42,0.83,0.88,1.64,1.38,2.4
	c1.028,1.557,2.233,2.96,3.58,4.199l77.992,78.006l-4.665,2.314L224.4,300.008c-2.616-3.136-6.138-5.602-10.07-6.818
	c0,0-59.82-18.39-64.12-19.73c-6.72-2.07-14.88-5.57-22.95-1.56c-1.55,0.77-62.77,31.055-116.516,57.653
	C42.349,435.084,140.184,512,256,512z"/>
<path style="fill:#FFDBA9;" d="M338.12,320.2l-93.92,46.57c-17.28,8.58-37.36,17.9-56.65,12.41c-24.2-6.9-26.65-5.51-39.61,0.93
	l-86.19,42.63C43.07,401,27.97,376.08,17.39,348.91l112.82-55.83c1.68-0.83,3.58-1.01,5.27-0.49l87.44,26.56
	c1.69,0.51,3.59,0.33,5.26-0.49l87.62-43.47c13.02-6.46,28.09-3.01,35.07,7.56c0.5,0.76,0.96,1.57,1.38,2.4
	C358.41,297.58,352.09,313.26,338.12,320.2z"/>
<path style="fill:#FFC473;" d="M228.18,317.54c-3.61,9.93-16.91,14.84-27,11.72c0,0-21.36-6.61-21.45-6.63l-44.49-13.8L23.82,363.96
	c-2.3-4.93-4.44-9.95-6.43-15.05c-2.47-6.33-4.69-12.79-6.66-19.35c53.75-26.6,114.98-56.89,116.53-57.66
	c8.07-4.01,16.23-0.51,22.95,1.56c4.3,1.34,64.12,19.73,64.12,19.73c4.72,1.46,8.85,4.72,11.53,8.78
	C228.91,306.6,230.11,312.27,228.18,317.54z"/>
<path style="fill:#E67500;" d="M494.61,163.09l-112.82,55.83c-1.68,0.83-3.58,1.01-5.27,0.49l-87.44-26.56
	c-1.69-0.51-3.59-0.33-5.26,0.49l-87.62,43.47c-13.02,6.46-28.09,3.01-35.07-7.56c-0.5-0.76-0.96-1.57-1.38-2.4
	c-6.16-12.43,0.16-28.11,14.13-35.05l93.92-46.57c17.28-8.58,37.36-17.9,56.65-12.41c24.2,6.9,26.65,5.51,39.61-0.93l86.19-42.63
	C468.93,111,484.03,135.92,494.61,163.09z"/>
<path style="fill:#9A4C00;" d="M501.27,182.44c-53.75,26.6-114.98,56.89-116.53,57.66c-8.07,4.01-16.23,0.51-22.95-1.56
	c-4.3-1.34-64.12-19.73-64.12-19.73c-4.72-1.46-8.85-4.72-11.53-8.78c-3.05-4.63-4.25-10.3-2.32-15.57
	c3.61-9.93,16.91-14.84,27-11.72c0,0,21.36,6.61,21.45,6.63l44.49,13.8l111.42-55.14c2.3,4.93,4.44,9.96,6.43,15.06
	C497.08,169.42,499.3,175.88,501.27,182.44z"/>
<g>
</g>
<g>
</g>
<g>
</g>
<g>
</g>
<g>
</g>
<g>
</g>
<g>
</g>
<g>
</g>
<g>
</g>
<g>
</g>
<g>
</g>
<g>
</g>
<g>
</g>
<g>
</g>
<g>
</g>
</svg>
