<?xml version="1.0" encoding="iso-8859-1"?>
<!-- Generator: Adobe Illustrator 19.0.0, SVG Export Plug-In . SVG Version: 6.00 Build 0)  -->
<svg version="1.1" id="Capa_1" xmlns="http://www.w3.org/2000/svg" xmlns:xlink="http://www.w3.org/1999/xlink" x="0px" y="0px"
	 viewBox="0 0 512 512" style="enable-background:new 0 0 512 512;" xml:space="preserve">
<circle style="fill:#005C83;" cx="256" cy="256" r="256"/>
<path style="fill:#00263F;" d="M300.619,508.117C420.732,487.004,512,382.164,512,256c0-2.355-0.037-4.7-0.1-7.04L375.443,112.504
	L96.19,203.707l91.463,91.463l-89.079,10.901L300.619,508.117z"/>
<path style="fill:#FFECB3;" d="M130.532,205.68h233.912v-82.176H130.532c-22.692,0-41.088,18.396-41.088,41.088l0,0
	C89.443,187.284,107.839,205.68,130.532,205.68z"/>
<rect x="255.95" y="123.5" style="fill:#FFD863;" width="108.49" height="82.18"/>
<path style="fill:#FF6838;" d="M375.443,216.68H130.531c-28.722,0-52.088-23.367-52.088-52.088
	c0-28.722,23.366-52.088,52.088-52.088h244.912v22H130.531c-16.591,0-30.088,13.498-30.088,30.088
	c0,16.591,13.497,30.088,30.088,30.088h244.912V216.68z"/>
<g>
	<rect x="255.95" y="194.68" style="fill:#AE4E32;" width="119.49" height="22"/>
	<rect x="255.95" y="112.5" style="fill:#AE4E32;" width="119.49" height="22"/>
</g>
<path style="fill:#FFECB3;" d="M130.532,306.072h233.912v-82.176H130.532c-22.692,0-41.088,18.396-41.088,41.088l0,0
	C89.443,287.676,107.839,306.072,130.532,306.072z"/>
<rect x="255.95" y="223.9" style="fill:#FFD863;" width="108.49" height="82.18"/>
<g>
	<path style="fill:#35CCFF;" d="M375.443,317.072H130.531c-28.722,0-52.088-23.367-52.088-52.088
		c0-28.722,23.366-52.088,52.088-52.088h244.912v22H130.531c-16.591,0-30.088,13.498-30.088,30.088
		c0,16.591,13.497,30.088,30.088,30.088h244.912V317.072z"/>
	<rect x="255.95" y="295.07" style="fill:#35CCFF;" width="119.49" height="22"/>
	<rect x="255.95" y="212.9" style="fill:#35CCFF;" width="119.49" height="22"/>
</g>
<rect x="262.932" y="353.419" transform="matrix(-0.7071 -0.7071 0.7071 -0.7071 277.9843 869.9824)" style="fill:#FF6838;" width="112.479" height="48"/>
<rect x="270.515" y="356.55" transform="matrix(-0.7071 -0.7071 0.7071 -0.7071 296.2982 862.382)" style="fill:#AE4E32;" width="112.479" height="26.551"/>
<circle style="fill:#FFFFFF;" cx="224.18" cy="287.74" r="74.56"/>
<path style="fill:#E0E0E0;" d="M298.746,287.737c0-41.181-33.384-74.564-74.564-74.564c-20.158,0-38.435,8.013-51.856,21.011
	l105.409,105.409C290.733,326.172,298.746,307.895,298.746,287.737z"/>
<path style="fill:#FFCF35;" d="M224.182,379.301c-50.489,0-91.564-41.076-91.564-91.564s41.075-91.564,91.564-91.564
	s91.564,41.075,91.564,91.564S274.671,379.301,224.182,379.301z M224.182,230.172c-31.741,0-57.564,25.823-57.564,57.564
	s25.823,57.564,57.564,57.564s57.564-25.823,57.564-57.564C281.746,255.996,255.923,230.172,224.182,230.172z"/>
<path style="fill:#FFB344;" d="M224.182,230.172c31.741,0,57.564,25.823,57.564,57.564c0,15.44-6.122,29.468-16.051,39.816
	l24.041,24.041c16.084-16.508,26.01-39.043,26.01-63.857c0-50.489-41.075-91.564-91.564-91.564c-24.814,0-47.349,9.926-63.856,26.01
	l24.041,24.041C194.714,236.294,208.742,230.172,224.182,230.172z"/>
<g>
</g>
<g>
</g>
<g>
</g>
<g>
</g>
<g>
</g>
<g>
</g>
<g>
</g>
<g>
</g>
<g>
</g>
<g>
</g>
<g>
</g>
<g>
</g>
<g>
</g>
<g>
</g>
<g>
</g>
</svg>
