<?xml version="1.0" encoding="iso-8859-1"?>
<!-- Generator: Adobe Illustrator 19.0.0, SVG Export Plug-In . SVG Version: 6.00 Build 0)  -->
<svg version="1.1" id="Layer_1" xmlns="http://www.w3.org/2000/svg" xmlns:xlink="http://www.w3.org/1999/xlink" x="0px" y="0px"
	 viewBox="0 0 512 512" style="enable-background:new 0 0 512 512;" xml:space="preserve">
<circle style="fill:#B5F1F4;" cx="256" cy="256" r="256"/>
<path style="fill:#84DBFF;" d="M100.617,344.1l167.602,167.603c112.302-5.279,205.664-82.913,234.532-187.337L279.166,100.095
	l-36.848,17.346l-9.557,27.898l19.771,19.771v103.936L100.617,344.1z"/>
<rect x="248.242" y="147.222" style="fill:#FD8469;" width="15.515" height="113.778"/>
<g>
	<rect x="256.293" y="147.222" style="fill:#FC6F58;" width="7.47" height="113.778"/>
	<circle style="fill:#FC6F58;" cx="256" cy="122.759" r="32.416"/>
</g>
<path style="fill:#F1543F;" d="M288.416,122.752c0-17.806-14.36-32.246-32.128-32.401v64.803
	C274.056,154.996,288.416,140.557,288.416,122.752z"/>
<rect x="191.363" y="226.467" transform="matrix(-0.4472 -0.8944 0.8944 -0.4472 28.7247 597.8896)" style="fill:#FD8469;" width="15.515" height="127.203"/>
<rect x="249.268" y="282.316" transform="matrix(-0.8944 -0.4472 0.4472 -0.8944 462.9838 689.4425)" style="fill:#FC6F58;" width="127.203" height="15.515"/>
<circle style="fill:#4A6475;" cx="256" cy="257.034" r="50.855"/>
<path style="fill:#324A5E;" d="M306.855,257.031c0-27.989-22.614-50.693-50.567-50.848v101.697
	C284.241,307.724,306.855,285.02,306.855,257.031z"/>
<circle style="fill:#FC6F58;" cx="126.018" cy="323.974" r="32.416"/>
<circle style="fill:#F1543F;" cx="385.982" cy="323.974" r="32.416"/>
<g>
</g>
<g>
</g>
<g>
</g>
<g>
</g>
<g>
</g>
<g>
</g>
<g>
</g>
<g>
</g>
<g>
</g>
<g>
</g>
<g>
</g>
<g>
</g>
<g>
</g>
<g>
</g>
<g>
</g>
</svg>
