<?xml version="1.0" encoding="iso-8859-1"?>
<!-- Generator: Adobe Illustrator 19.0.0, SVG Export Plug-In . SVG Version: 6.00 Build 0)  -->
<svg version="1.1" id="Layer_1" xmlns="http://www.w3.org/2000/svg" xmlns:xlink="http://www.w3.org/1999/xlink" x="0px" y="0px"
	 viewBox="0 0 297 297" style="enable-background:new 0 0 297 297;" xml:space="preserve">
<g>
	<g>
		<g>
			<g>
				<circle style="fill:#C0392B;" cx="148.5" cy="148.5" r="148.5"/>
			</g>
		</g>
	</g>
	<path style="fill:#A02D27;" d="M228.899,100.908c-21.761,36.604-8.666,80.481-20.399,119.592c-7,24-37,37-60,26
		c-3.723-1.629-8.08-3.53-11.899-3.99l49.327,49.73c57.853-15.022,101.998-64.045,109.829-124.465L228.899,100.908z"/>
	<path style="fill:#32373B;" d="M214.5,125.5c-3.59,0-6.5,2.91-6.5,6.5v70.125C208,223.561,190.561,241,169.125,241
		s-38.875-17.439-38.875-38.875v-31.079c23.264-3.182,41.25-23.172,41.25-47.296V82.5c0-3.59-2.91-6.5-6.5-6.5h-16.5
		c-3.59,0-6.5,2.91-6.5,6.5s2.91,6.5,6.5,6.5h10v34.75c0,19.161-15.589,34.75-34.75,34.75S89,142.911,89,123.75V89h10
		c3.59,0,6.5-2.91,6.5-6.5S102.59,76,99,76H82.5c-3.59,0-6.5,2.91-6.5,6.5v41.25c0,24.123,17.986,44.114,41.25,47.296v31.079
		c0,28.604,23.271,51.875,51.875,51.875S221,230.729,221,202.125V132C221,128.41,218.09,125.5,214.5,125.5z"/>
	<path style="fill:#2B2B2B;" d="M214.5,125.5c-3.59,0-6.5,2.91-6.5,6.5v70.125C208,223.561,190.561,241,169.125,241
		s-38.875-17.439-38.875-38.875v-31.079c23.264-3.182,41.25-23.172,41.25-47.296V82.5c0-3.59-2.91-6.5-6.5-6.5h-16.5
		c-3.59,0-6.5,2.91-6.5,6.5s2.91,6.5,6.5,6.5h10v34.75c0,18.686-14.827,33.967-33.333,34.714v71.157
		C134.35,244.249,150.616,254,169.125,254C197.729,254,221,230.729,221,202.125V132C221,128.41,218.09,125.5,214.5,125.5z"/>
	<circle style="fill:#FFFFFF;" cx="214.5" cy="115.5" r="20.5"/>
	<circle style="fill:#D0D5D9;" cx="214.5" cy="115.5" r="11"/>
</g>
<g>
</g>
<g>
</g>
<g>
</g>
<g>
</g>
<g>
</g>
<g>
</g>
<g>
</g>
<g>
</g>
<g>
</g>
<g>
</g>
<g>
</g>
<g>
</g>
<g>
</g>
<g>
</g>
<g>
</g>
</svg>
