<?xml version="1.0" encoding="iso-8859-1"?>
<!-- Generator: Adobe Illustrator 19.0.0, SVG Export Plug-In . SVG Version: 6.00 Build 0)  -->
<svg version="1.1" id="Layer_1" xmlns="http://www.w3.org/2000/svg" xmlns:xlink="http://www.w3.org/1999/xlink" x="0px" y="0px"
	 viewBox="0 0 496.2 496.2" style="enable-background:new 0 0 496.2 496.2;" xml:space="preserve">
<path style="fill:#FABC3D;" d="M496.2,248.1C496.2,111.1,385.1,0,248.1,0S0,111.1,0,248.1s111.1,248.1,248.1,248.1
	S496.2,385.1,496.2,248.1z"/>
<path style="fill:#3A3A38;" d="M199.5,131.8c-4,12,60.2,209.3,143.6,190.4c83.4-18.9,56.4-224.5,47.6-233.7
	c-19.9,19.1-56.1,36.5-90.5,44.3C265.9,140.6,225.7,140.4,199.5,131.8z"/>
<g>
	<path style="fill:#FFFFFF;" d="M375.2,264.9c1.6-6.3-17.1-34.6-51.1-26.9s-38.7,41.4-34.6,46.3c0,0,9.9-12.6,40.6-19.6
		C360.9,257.7,375.2,264.9,375.2,264.9z"/>
	<path style="fill:#FFFFFF;" d="M290.2,178.9c2.8,6.9-7.3,7.1-18.1,11.5c-10.8,4.3-18.1,11.5-21,4.2c-2.9-7.2,4.7-13.8,15.5-18.1
		C277.3,172.2,287.4,172,290.2,178.9z"/>
	<path style="fill:#FFFFFF;" d="M325.8,170.8c0.5,7.4,9.7,3.3,21.3,2.5c11.6-0.7,21.3,2.5,20.8-5.2c-0.5-7.8-10.1-10.4-21.8-9.7
		C334.5,159.2,325.3,163.4,325.8,170.8z"/>
</g>
<path style="fill:#E5AA17;" d="M288.7,206.4c-1.7-3.8-6.1-5.5-9.8-3.8c-17.4,7.7-42.8,12-69.7,12c-9.8,0-19.5-0.6-28.7-1.8
	c-34.8-4.4-72-18.4-92.6-34.6c-3.2-2.6-7.9-2-10.5,1.2c-1.2,1.5-3.7,4.7-5.3,25.9c-1,13.6-1.2,30.2-0.5,46.8
	c1,26.1,5.1,75.8,21,114.9c14.2,34.8,34.7,54.1,60.9,57.5c2.5,0.3,5.1,0.5,7.6,0.5c26.3,0,50.8-17.2,73-51.2
	c22.5-34.6,37-78.3,43.6-101.3C278.4,270.1,293.5,217.3,288.7,206.4z"/>
<path style="fill:#3A3A38;" d="M85.3,186.5c-7.9,9.9-15.1,217.3,69.7,228.1s129.9-191.7,124.7-203.3
	c-25.2,11.1-65.2,15.1-100.2,10.6C144.6,217.4,106.9,203.5,85.3,186.5z"/>
<g>
	<path style="fill:#FFFFFF;" d="M120.7,329.1c-3.7,5.5,2.9,50.2,38.2,54.7s52.9-37.1,50.7-43.3c0,0-15.2,19.6-47.2,15.5
		C130.5,351.9,120.7,329.1,120.7,329.1z"/>
	<path style="fill:#FFFFFF;" d="M154.3,261.8c0.2,7.5-9.3,4.2-21,4.6c-11.6,0.4-21,4.6-21.2-3.2c-0.2-7.8,9.1-11.3,20.7-11.7
		C144.5,251.1,154,254.3,154.3,261.8z"/>
	<path style="fill:#FFFFFF;" d="M190.5,266.4c-2.1,7.2,8,6.4,19.1,9.7c11.2,3.3,19.1,9.7,21.3,2.2s-6-13.2-17.1-16.5
		C202.7,258.5,192.6,259.2,190.5,266.4z"/>
</g>
<g>
</g>
<g>
</g>
<g>
</g>
<g>
</g>
<g>
</g>
<g>
</g>
<g>
</g>
<g>
</g>
<g>
</g>
<g>
</g>
<g>
</g>
<g>
</g>
<g>
</g>
<g>
</g>
<g>
</g>
</svg>
