<?xml version="1.0" encoding="iso-8859-1"?>
<!-- Generator: Adobe Illustrator 19.0.0, SVG Export Plug-In . SVG Version: 6.00 Build 0)  -->
<svg version="1.1" id="Layer_1" xmlns="http://www.w3.org/2000/svg" xmlns:xlink="http://www.w3.org/1999/xlink" x="0px" y="0px"
	 viewBox="0 0 508 508" style="enable-background:new 0 0 508 508;" xml:space="preserve">
<circle style="fill:#FD8469;" cx="254" cy="254" r="254"/>
<rect x="114" y="125.2" style="fill:#324A5E;" width="279.6" height="169.2"/>
<rect x="99.2" y="96.8" style="fill:#E6E9EE;" width="309.6" height="28.4"/>
<path style="fill:#FFD05B;" d="M302,125.2c0,0,9.2,78.8,54.8,112.8c0,0-28.4,16-29.6,56.4H394V125.2H302z"/>
<path style="fill:#F9B54C;" d="M370.4,226.4c-0.8-1.2-2-2.8-3.2-4.8c-1.2-1.6-2.4-4-4-6c-1.2-2.4-2.8-4.8-4.4-7.6s-2.8-5.6-4.4-8.4
	c-1.2-3.2-2.8-6-4-9.2s-2.4-6.4-3.6-10c-0.8-3.2-2-6.8-2.8-10s-1.6-6.8-2-10c-0.8-3.2-0.8-6.4-1.2-9.2c-0.4-2.8-0.4-5.6-0.4-8.4
	c0-5.2,0-9.6,0.4-12.4c0-1.6,0.4-2.4,0.4-3.2c0-0.4,0-2,0-2h-12.8c0,0.8,0,3.2,0,4.4c0,3.6,0,8.4,0.8,14c0.4,2.8,0.8,6,1.2,9.2
	c0.4,3.2,1.2,6.4,2,10s2,6.8,3.2,10.4c1.2,3.6,2.4,6.8,4,10.4c1.6,3.2,3.2,6.8,4.8,10c1.6,3.2,3.6,6.4,5.2,9.6
	c2,2.8,3.6,5.6,5.2,8.4c1.6,2.8,3.6,5.2,5.2,7.2c1.6,2.4,3.2,4.4,4.4,6c1.6,1.6,2.8,3.2,3.6,4.4c2,2.4,5.6,6,5.6,6l3.2-2.4
	C375.2,232.8,372,228.8,370.4,226.4z"/>
<rect x="349.2" y="231.6" style="fill:#E6E9EE;" width="44.8" height="13.2"/>
<path style="fill:#F9B54C;" d="M365.2,244.8c0,0-20,12.8-16.8,47.2c0.4,1.6,0.4,2.4,0.4,2.4h4c0,0,0-1.2,0-2.8c0-1.6-0.4-3.6,0-6.4
	c0-1.2,0-2.8,0.4-4.4c0-1.6,0.4-3.2,0.8-4.8c0-1.6,0.8-3.2,1.2-4.8c0.4-1.6,1.2-3.2,1.6-4.8c0.4-1.6,1.6-2.8,2.4-4.4
	c0.8-1.2,1.6-2.8,2.8-3.6c0.4-0.4,0.8-1.2,1.6-1.6c0.4-0.4,4.8-4.8,5.2-5.2c0.8-0.8,8.8-6.8,9.6-7.2h-13.2V244.8z"/>
<path style="fill:#FFD05B;" d="M206,125.2c0,0-9.2,78.8-54.8,112.8c0,0,28.4,16,29.6,56.4H114V125.2H206z"/>
<path style="fill:#F9B54C;" d="M137.6,226.4c0.8-1.2,2-2.8,3.2-4.8c1.2-1.6,2.4-4,4-6c1.2-2.4,2.8-4.8,4.4-7.6
	c1.6-2.8,2.8-5.6,4.4-8.4c1.2-3.2,2.8-6,4-9.2s2.4-6.4,3.6-10c0.8-3.2,2-6.8,2.8-10s1.6-6.8,2-10c0.8-3.2,0.8-6.4,1.2-9.2
	s0.4-5.6,0.4-8.4c0-5.2,0-9.6-0.4-12.4c0-1.6-0.4-2.4-0.4-3.2c0-0.4,0-2,0-2h12.8c0,0.8,0,3.2,0,4.4c0,3.6,0,8.4-0.8,14
	c-0.4,2.8-0.8,6-1.2,9.2s-1.2,6.4-2,10s-2,6.8-3.2,10.4c-1.2,3.6-2.4,6.8-4,10.4c-1.6,3.2-3.2,6.8-4.8,10s-3.6,6.4-5.2,9.6
	c-2,2.8-3.6,5.6-5.2,8.4c-1.6,2.8-3.6,5.2-5.2,7.2c-1.6,2.4-3.2,4.4-4.4,6c-1.6,1.6-2.8,3.2-3.6,4.4c-2,2.4-5.6,6-5.6,6l-3.2-2.4
	C132.8,232.8,136,228.8,137.6,226.4z"/>
<rect x="114" y="231.6" style="fill:#E6E9EE;" width="44.8" height="13.2"/>
<path style="fill:#F9B54C;" d="M142.8,244.8c0,0,20,12.8,16.8,47.2c-0.4,1.6-0.4,2.4-0.4,2.4h-4c0,0,0-1.2,0-2.8
	c0-1.6,0.4-3.6,0-6.4c0-1.2,0-2.8-0.4-4.4c0-1.6-0.4-3.2-0.8-4.8c0-1.6-0.8-3.2-1.2-4.8c-0.4-1.6-1.2-3.2-1.6-4.8
	c-0.4-1.6-1.6-2.8-2.4-4.4c-0.8-1.2-1.6-2.8-2.8-3.6c-0.4-0.4-0.8-1.2-1.6-1.6c-0.4-0.4-4.8-4.8-5.2-5.2c-0.8-0.8-8.8-6.8-9.6-7.2
	h13.2V244.8z"/>
<g>
	<circle style="fill:#E6E9EE;" cx="160" cy="332" r="22.8"/>
	<path style="fill:#E6E9EE;" d="M210,411.2c-1.2-26.8-23.2-48-50-48s-48.8,21.2-50,48H210z"/>
	<circle style="fill:#E6E9EE;" cx="254" cy="332" r="22.8"/>
	<path style="fill:#E6E9EE;" d="M304,411.2c-1.2-26.8-23.2-48-50-48s-48.8,21.2-50,48H304z"/>
	<circle style="fill:#E6E9EE;" cx="348" cy="332" r="22.8"/>
	<path style="fill:#E6E9EE;" d="M398,411.2c-1.2-26.8-23.2-48-50-48s-48.8,21.2-50,48H398z"/>
</g>
<g>
</g>
<g>
</g>
<g>
</g>
<g>
</g>
<g>
</g>
<g>
</g>
<g>
</g>
<g>
</g>
<g>
</g>
<g>
</g>
<g>
</g>
<g>
</g>
<g>
</g>
<g>
</g>
<g>
</g>
</svg>
