<?xml version="1.0" encoding="iso-8859-1"?>
<!-- Generator: Adobe Illustrator 19.0.0, SVG Export Plug-In . SVG Version: 6.00 Build 0)  -->
<svg version="1.1" id="Layer_1" xmlns="http://www.w3.org/2000/svg" xmlns:xlink="http://www.w3.org/1999/xlink" x="0px" y="0px"
	 viewBox="0 0 512 512" style="enable-background:new 0 0 512 512;" xml:space="preserve">
<circle style="fill:#FFEDB5;" cx="256" cy="256" r="256"/>
<g>
	<path style="fill:#FEE187;" d="M509.056,294.948L369.778,155.67l-42.97-13.607l-63.05-63.052l-10.63,345.931l-43.779,7.935
		l77.291,77.291C400.748,496.555,491.815,407.902,509.056,294.948z"/>
	<polygon style="fill:#FEE187;" points="210.42,401.767 232.295,423.641 242.212,433.559 209.348,417.663 	"/>
</g>
<path style="fill:#D48B07;" d="M230.715,440.746c-18.218,0-33.04-14.824-33.04-33.042c0-4.284,3.474-7.758,7.758-7.758
	c4.284,0,7.758,3.474,7.758,7.758c0,9.664,7.863,17.527,17.525,17.527c9.664,0,17.527-7.863,17.527-17.527V79.012
	c0-4.284,3.474-7.758,7.758-7.758c4.284,0,7.758,3.474,7.758,7.758v328.692C263.758,425.922,248.934,440.746,230.715,440.746z"/>
<path style="fill:#A36400;" d="M263.758,79.012c0-4.186-3.322-7.573-7.47-7.728v357.312c4.663-5.697,7.47-12.972,7.47-20.892V79.012
	z"/>
<path style="fill:#E03A00;" d="M104.296,256c0-83.784,67.92-151.704,151.704-151.704S407.704,172.216,407.704,256H104.296z"/>
<path style="fill:#940030;" d="M256.288,104.3V256h151.416C407.704,172.313,339.939,104.457,256.288,104.3z"/>
<g>
</g>
<g>
</g>
<g>
</g>
<g>
</g>
<g>
</g>
<g>
</g>
<g>
</g>
<g>
</g>
<g>
</g>
<g>
</g>
<g>
</g>
<g>
</g>
<g>
</g>
<g>
</g>
<g>
</g>
</svg>
